<svg width="632" height="501" viewBox="0 0 632 501" fill="none" xmlns="http://www.w3.org/2000/svg">
<g clip-path="url(#clip0_27_66)">
<path d="M423.801 499.067H435.719C437.234 499.065 438.686 498.37 439.758 497.133C440.829 495.897 441.431 494.221 441.433 492.472V377.821C441.431 376.072 440.829 374.396 439.758 373.159C438.686 371.923 437.234 371.228 435.719 371.226H423.801C422.286 371.228 420.833 371.923 419.762 373.159C418.691 374.396 418.088 376.072 418.087 377.821V492.472C418.088 494.221 418.691 495.897 419.762 497.133C420.833 498.37 422.286 499.065 423.801 499.067Z" fill="#4B98D1"/>
<path d="M453.026 499.067H464.944C466.459 499.065 467.912 498.37 468.983 497.133C470.054 495.897 470.657 494.221 470.658 492.472V377.821C470.657 376.072 470.054 374.396 468.983 373.159C467.912 371.923 466.459 371.228 464.944 371.226H453.026C451.511 371.228 450.059 371.923 448.987 373.159C447.916 374.396 447.314 376.072 447.312 377.821V492.472C447.314 494.221 447.916 495.897 448.987 497.133C450.059 498.37 451.511 499.065 453.026 499.067Z" fill="#4B98D1"/>
<path d="M440.96 226.987C414.753 226.987 393.508 202.466 393.508 172.218C393.508 141.969 414.753 117.448 440.96 117.448C467.167 117.448 488.413 141.969 488.413 172.218C488.413 202.466 467.167 226.987 440.96 226.987Z" fill="#4B98D1"/>
<path d="M414.144 190.396C411.143 189.611 407.408 188.634 404.933 185.535C404.2 184.582 403.658 183.456 403.342 182.236C403.027 181.016 402.946 179.731 403.106 178.471C403.206 177.572 403.484 176.712 403.919 175.958C404.354 175.204 404.935 174.577 405.615 174.124C407.378 172.995 409.644 173.152 411.884 174.501L412.977 153.157L414.834 153.284L413.55 178.376L412.176 177.232C410.584 175.905 408.261 174.886 406.518 176.002C406.086 176.299 405.719 176.708 405.446 177.195C405.173 177.683 405.001 178.236 404.944 178.813C404.829 179.752 404.891 180.708 405.125 181.616C405.359 182.525 405.76 183.365 406.301 184.079C408.227 186.49 411.179 187.418 414.556 188.301L414.144 190.396Z" fill="#2F2E41"/>
<path d="M393.893 150.669L403.725 152.911L403.364 155.018L393.532 152.776L393.893 150.669Z" fill="#2F2E41"/>
<path d="M424.926 157.746L434.758 159.988L434.398 162.095L424.565 159.853L424.926 157.746Z" fill="#2F2E41"/>
<path d="M429.289 398.882H484.613C486.33 398.88 487.976 398.092 489.19 396.69C490.404 395.289 491.087 393.389 491.089 391.408V295.584C491.074 280.855 485.998 266.734 476.975 256.319C467.951 245.904 455.717 240.046 442.956 240.029C429.835 240.047 417.256 246.07 407.979 256.778C398.701 267.487 393.482 282.006 393.467 297.149V357.538C393.478 368.499 397.256 379.008 403.971 386.759C410.687 394.51 419.792 398.87 429.289 398.882Z" fill="#2F2E41"/>
<path d="M449.856 148.105C448.324 142.805 443.003 140.76 438.577 140.602C432.355 140.378 426.28 142.929 420.039 141.789C408.716 139.721 401.648 127.127 399.445 115.07C397.976 107.028 398.106 98.784 398.272 90.6123C398.262 90.2972 398.331 89.9854 398.47 89.7143C398.61 89.4433 398.814 89.2246 399.059 89.0845C399.304 88.9444 399.578 88.8889 399.85 88.9247C400.121 88.9605 400.378 89.086 400.589 89.2862C405.115 92.851 408.37 98.1878 409.75 104.309L407.039 104.956L405.613 90.6833C405.593 90.3297 405.674 89.9784 405.843 89.6823C406.011 89.3862 406.259 89.1615 406.548 89.042C410.795 87.3347 414.335 91.1877 416.646 94.8329C417.843 96.7206 418.991 98.7774 420.769 100.006C422.622 101.172 424.742 101.646 426.837 101.363C431.164 101.002 435.265 99.1148 439.504 98.1806C443.396 97.3444 447.365 97.0896 451.314 97.4228C459.128 98.0559 466.702 100.814 473.417 105.471C480.123 110.136 486.263 116.802 489.823 124.94C491.855 129.587 492.958 134.935 491.842 140.086C491.395 142.426 490.48 144.612 489.169 146.47C487.858 148.327 486.188 149.805 484.293 150.783C482.631 151.586 481.727 148.536 483.378 147.739C486.521 146.22 488.516 142.658 489.214 138.908C490.012 134.621 489.035 130.187 487.334 126.348C484.02 118.872 478.349 112.655 472.167 108.353C465.874 103.978 458.79 101.339 451.468 100.643C447.886 100.314 444.283 100.495 440.739 101.182C436.764 101.947 432.962 103.589 428.978 104.314C424.606 105.109 420.069 104.41 416.94 100.483C414.638 97.5944 411.794 90.3449 407.463 92.0863L408.397 90.4451L409.823 104.718C410.002 106.504 407.512 107.149 407.112 105.365C405.869 99.7786 402.889 94.9151 398.74 91.7002L401.057 90.3741C400.781 103.924 400.535 118.899 408.36 130.002C411.717 134.765 416.441 138.25 421.809 138.805C427.857 139.43 433.794 136.903 439.85 137.487C445.087 137.992 450.72 140.914 452.494 147.049C453.063 149.019 450.425 150.074 449.856 148.105Z" fill="#2F2E41"/>
<path d="M426.005 196.257C426.013 196.411 426.022 196.566 426.036 196.722C426.146 198.033 426.48 199.306 427.019 200.468C427.559 201.629 428.292 202.655 429.177 203.487L439.023 212.794C440.807 214.476 443.096 215.272 445.388 215.009C447.68 214.746 449.788 213.444 451.25 211.389L475.971 176.548C477.428 174.489 478.117 171.847 477.889 169.202C477.661 166.556 476.533 164.123 474.753 162.436L464.907 153.13C464.024 152.296 463.008 151.67 461.916 151.289C460.824 150.908 459.678 150.779 458.542 150.909C457.407 151.04 456.305 151.427 455.3 152.049C454.294 152.671 453.405 153.516 452.682 154.535L427.961 189.375C426.584 191.305 425.886 193.761 426.005 196.257Z" fill="#2F2E41"/>
<path d="M457.381 178.758C455.677 178.758 454.296 177.164 454.296 175.197C454.296 173.231 455.677 171.637 457.381 171.637C459.085 171.637 460.466 173.231 460.466 175.197C460.466 177.164 459.085 178.758 457.381 178.758Z" fill="white"/>
<path d="M436.075 179.546L436.077 179.569C434.767 179.89 433.609 180.766 432.83 182.024C432.051 183.281 431.709 184.83 431.87 186.365L442.41 286.038C442.749 289.235 444.136 292.161 446.287 294.213C448.437 296.266 451.188 297.289 453.972 297.072C456.756 296.855 459.363 295.415 461.255 293.048C463.148 290.681 464.182 287.566 464.145 284.346C464.139 283.892 464.112 283.438 464.065 282.987L453.524 183.314C453.352 181.687 452.627 180.205 451.508 179.195C450.39 178.185 448.969 177.729 447.559 177.927L436.075 179.546Z" fill="#4B98D1"/>
<path d="M84.8826 117.724C63.0504 117.724 45.352 97.2968 45.352 72.0981C45.352 46.8995 63.0504 26.4719 84.8826 26.4719C106.715 26.4719 124.413 46.8995 124.413 72.0981C124.413 97.2968 106.715 117.724 84.8826 117.724Z" fill="#E4E4E4"/>
<path d="M80.261 91.2512C82.8235 91.1691 86.0125 91.0664 88.4694 88.995C89.201 88.3528 89.802 87.5339 90.2305 86.5954C90.659 85.6569 90.9045 84.6216 90.9498 83.5621C90.9942 82.8091 90.8872 82.0545 90.6371 81.3571C90.3869 80.6598 90.0004 80.0387 89.5078 79.5423C88.7758 78.9117 87.9186 78.5026 87.0144 78.3524C86.1103 78.2022 85.1879 78.3156 84.3314 78.6822L86.4236 61.0351L84.8878 60.7922L82.4282 81.5387L83.7108 80.8594C85.1977 80.0722 87.2388 79.6716 88.5072 80.9088C88.8186 81.2322 89.0612 81.6342 89.2162 82.0834C89.3712 82.5327 89.4343 83.0172 89.4006 83.4992C89.363 84.2878 89.1787 85.0577 88.8602 85.7567C88.5417 86.4557 88.0965 87.0673 87.5549 87.5499C85.6429 89.1618 83.101 89.3698 80.2178 89.4628L80.261 91.2512Z" fill="#2F2E41"/>
<path d="M94.0191 62.5571H102.368V64.3464H94.0191V62.5571Z" fill="#2F2E41"/>
<path d="M67.6654 62.5571H76.0145V64.3464H67.6654V62.5571Z" fill="#2F2E41"/>
<path d="M84.8825 144.197C97.2371 144.197 109.314 139.968 119.587 132.046C129.859 124.124 137.866 112.863 142.594 99.6891C147.321 86.5149 148.558 72.0183 146.148 58.0326C143.738 44.0469 137.789 31.2003 129.053 21.1171C120.317 11.034 109.186 4.16731 97.069 1.38538C84.9517 -1.39655 72.392 0.0312351 60.9778 5.48818C49.5636 10.9451 39.8077 20.1862 32.9439 32.0427C26.08 43.8992 22.4165 57.8386 22.4165 72.0983C22.4352 91.2133 29.0224 109.539 40.733 123.056C52.4436 136.572 68.3212 144.175 84.8825 144.197ZM84.8825 1.97532C96.8986 1.97532 108.645 6.08796 118.636 13.7932C128.627 21.4984 136.414 32.4501 141.012 45.2634C145.611 58.0767 146.814 72.1761 144.47 85.7786C142.125 99.3812 136.339 111.876 127.842 121.683C119.346 131.49 108.52 138.168 96.7351 140.874C84.9499 143.58 72.7341 142.191 61.6327 136.883C50.5312 131.576 41.0427 122.588 34.3669 111.057C27.6911 99.5249 24.1279 85.9673 24.1279 72.0983C24.1461 53.507 30.5528 35.6831 41.9426 22.5371C53.3323 9.39103 68.7749 1.99634 84.8825 1.97532Z" fill="#3F3D56"/>
<path d="M139.634 284.987C122.235 284.987 108.129 268.707 108.129 248.624C108.129 228.541 122.235 212.26 139.634 212.26C157.034 212.26 171.14 228.541 171.14 248.624C171.14 268.707 157.034 284.987 139.634 284.987Z" fill="#E4E4E4"/>
<path d="M31.5053 284.987C14.1054 284.987 3.8147e-05 268.707 3.8147e-05 248.624C3.8147e-05 228.541 14.1054 212.26 31.5053 212.26C48.9052 212.26 63.0106 228.541 63.0106 248.624C63.0106 268.707 48.9052 284.987 31.5053 284.987Z" fill="#CACACA"/>
<path d="M124.33 255.885C125.382 255.935 126.408 255.504 127.185 254.685C127.963 253.867 128.429 252.727 128.483 251.514C128.49 251.422 128.495 251.331 128.499 251.239H150.77C150.774 251.331 150.779 251.422 150.785 251.514C150.813 252.133 150.948 252.74 151.182 253.298C151.417 253.855 151.746 254.353 152.151 254.76C152.556 255.168 153.028 255.477 153.539 255.67C154.049 255.862 154.588 255.934 155.124 255.881C155.681 255.876 156.232 255.744 156.744 255.493C157.257 255.241 157.722 254.875 158.111 254.415C158.501 253.956 158.808 253.412 159.015 252.814C159.221 252.217 159.324 251.579 159.315 250.936V250.745C159.313 248.257 158.456 245.872 156.932 244.113C155.408 242.354 153.342 241.365 151.186 241.362H128.082C125.927 241.365 123.861 242.354 122.337 244.113C120.813 245.872 119.956 248.257 119.953 250.745V250.936C119.945 251.579 120.048 252.217 120.254 252.814C120.461 253.412 120.768 253.956 121.158 254.415C121.547 254.875 122.012 255.241 122.524 255.493C123.037 255.744 123.588 255.876 124.145 255.881C124.207 255.884 124.268 255.885 124.33 255.885Z" fill="white"/>
<path d="M24.2639 268.765C24.7918 268.765 25.3184 268.706 25.8366 268.589C26.8853 268.356 27.8837 267.886 28.7739 267.205C29.6642 266.524 30.4285 265.646 31.0228 264.622L43.9314 242.506C45.1334 240.441 45.5769 237.91 45.1644 235.469C44.7519 233.027 43.5172 230.874 41.7311 229.482L41.5937 229.375C41.136 229.008 40.6202 228.75 40.0757 228.614C39.5312 228.479 38.9688 228.469 38.4209 228.585C37.8731 228.701 37.3505 228.941 36.8833 229.291C36.4161 229.641 36.0135 230.095 35.6986 230.625C35.3631 231.108 35.115 231.665 34.969 232.261C34.823 232.857 34.7821 233.481 34.8487 234.095C34.9152 234.71 35.088 235.303 35.3566 235.84C35.6253 236.376 35.9843 236.844 36.4127 237.218C36.4747 237.275 36.5377 237.331 36.6015 237.387L24.1588 258.705C24.0905 258.658 24.0217 258.612 23.9524 258.567C23.4917 258.249 22.9806 258.041 22.4491 257.955C21.9176 257.869 21.3765 257.907 20.858 258.067C20.3395 258.226 19.8539 258.504 19.43 258.884C19.0062 259.264 18.6527 259.739 18.3903 260.279C18.0825 260.815 17.8696 261.416 17.7638 262.047C17.6581 262.679 17.6616 263.328 17.7742 263.958C17.8868 264.588 18.1062 265.185 18.4199 265.717C18.7335 266.248 19.1351 266.703 19.6016 267.055L19.7395 267.162C21.0749 268.206 22.6508 268.764 24.2639 268.765Z" fill="white"/>
<path d="M239.675 500.04H630.981C631.251 500.039 631.509 499.915 631.7 499.695C631.89 499.474 631.997 499.176 631.997 498.864C631.997 498.553 631.89 498.254 631.7 498.034C631.509 497.813 631.251 497.689 630.981 497.688H239.675C239.405 497.689 239.147 497.813 238.957 498.034C238.766 498.254 238.659 498.553 238.659 498.864C238.659 499.176 238.766 499.474 238.957 499.695C239.147 499.915 239.405 500.039 239.675 500.04Z" fill="#3F3D56"/>
</g>
<defs>
<clipPath id="clip0_27_66">
<rect width="632" height="500.04" fill="white" transform="matrix(-1 0 0 1 632 0)"/>
</clipPath>
</defs>
</svg>
